<svg height="471pt" viewBox="0 0 471.91639 471" width="471pt" xmlns="http://www.w3.org/2000/svg"><path d="m454.300781 408.15625c6.191407 6.175781 9.675781 14.558594 9.675781 23.300781 0 8.746094-3.484374 17.128907-9.675781 23.300781-12.308593 12.292969-32.050781 12.90625-45.101562 1.398438-.5-.5-1-.898438-1.5-1.398438l-99.5-99.5 23.402343-23.398437 23.199219-23.203125zm0 0" fill="#00acea"/><path d="m177.5 8.457031c93.609375 0 169.5 75.839844 169.5 169.402344 0 93.558594-75.890625 169.398437-169.5 169.398437s-169.5-75.839843-169.5-169.398437c0-93.5625 75.890625-169.402344 169.5-169.402344zm125.699219 169.402344c.054687-69.4375-56.199219-125.765625-125.632813-125.800781-69.433594-.039063-125.746094 56.230468-125.765625 125.667968-.019531 69.433594 56.265625 125.730469 125.699219 125.730469 69.394531.03125 125.671875-56.203125 125.699219-125.597656zm0 0" fill="#fedb41"/><path d="m303.199219 177.859375c0-69.367187-56.277344-125.601563-125.699219-125.601563s-125.699219 56.234376-125.699219 125.601563 56.277344 125.597656 125.699219 125.597656 125.699219-56.230469 125.699219-125.597656zm0 0" fill="#00efd1"/><g fill="#083863"><path d="m360.457031 303c-3.125-3.125-8.191406-3.125-11.3125 0l-17.542969 17.542969-23.105468-23.097657c29.941406-32.625 46.539062-75.304687 46.503906-119.585937 0-97.820313-79.625-177.402344-177.5-177.402344s-177.5 79.582031-177.5 177.402344c0 97.816406 79.625 177.398437 177.5 177.398437 44.308594.035157 87.019531-16.558593 119.679688-46.507812l23.109374 23.109375-17.742187 17.742187c-3.125 3.125-3.125 8.1875 0 11.3125l99.5 99.5c.351563.351563.699219.671876 1.054687.988282.148438.132812.300782.265625.445313.414062.101563.097656.203125.195313.308594.292969 16.574219 14.640625 41.777343 13.480469 56.933593-2.621094 15.152344-16.105469 14.785157-41.332031-.832031-56.988281zm-182.957031 36.257812c-89.050781 0-161.5-72.398437-161.5-161.398437s72.449219-161.402344 161.5-161.402344 161.5 72.402344 161.5 161.402344-72.449219 161.398437-161.5 161.398437zm271.070312 109.914063c-9.265624 9.175781-24.03125 9.675781-33.898437 1.148437-.289063-.28125-.578125-.546874-.867187-.808593-.148438-.132813-.300782-.261719-.449219-.410157l-93.84375-93.84375 35.289062-35.285156 93.800781 93.800782c9.769532 9.78125 9.757813 25.632812-.03125 35.398437zm0 0"/><path d="m177.5 44.257812c-73.722656 0-133.699219 59.933594-133.699219 133.601563 0 73.664063 59.976563 133.597656 133.699219 133.597656s133.699219-59.929687 133.699219-133.597656-59.976563-133.601563-133.699219-133.601563zm0 251.199219c-64.898438 0-117.699219-52.753906-117.699219-117.597656s52.800781-117.601563 117.699219-117.601563 117.699219 52.753907 117.699219 117.601563c0 64.84375-52.800781 117.597656-117.699219 117.597656zm0 0"/><path d="m236.578125 138.664062-34.941406 21.484376-38.191407-14.535157c-2.675781-1.039062-5.699218-.5625-7.929687 1.246094-2.226563 1.808594-3.316406 4.667969-2.855469 7.5.460938 2.832031 2.40625 5.199219 5.09375 6.207031l26.6875 10.160156-52.800781 32.46875-12.671875-13.136718c-3.066406-3.179688-8.132812-3.273438-11.3125-.207032-3.179688 3.070313-3.269531 8.132813-.203125 11.3125l17.136719 17.765626c2.609375 2.703124 6.746094 3.226562 9.949218 1.257812l110.417969-67.898438c2.453125-1.488281 3.921875-4.175781 3.847657-7.046874-.074219-2.867188-1.675782-5.476563-4.203126-6.835938-2.527343-1.359375-5.589843-1.265625-8.023437.253906zm0 0"/></g></svg>