<svg height="511pt" viewBox="0 -20 511.99917 511" width="511pt" xmlns="http://www.w3.org/2000/svg"><path d="m254.785156 10.527344c-135.304687.652344-244.785156 110.539062-244.785156 245.996094 0 .695312.003906 1.386718.007812 2.082031.3125 37.320312 30.648438 67.414062 67.972657 67.414062h141.292969c.820312-14.511719 10.050781-26.765625 22.894531-31.980469l11.601562-37.515624h-164.238281c-17.546875 0-30.792969-15.808594-27.867188-33.109376 15.746094-93.09375 96.761719-163.996093 194.335938-163.996093s178.589844 70.902343 194.335938 163.996093c2.925781 17.300782-10.320313 33.105469-27.867188 33.105469h-127.855469l-10.800781 47.539063c5.160156 5.957031 8.441406 13.582031 8.914062 21.960937h141.296876c37.390624 0 67.683593-30.203125 67.96875-67.589843.007812-.816407.007812-1.636719.007812-2.457032-.296875-135.691406-111.523438-246.105468-247.214844-245.445312zm0 0" fill="#9bdcff"/><path d="m304.667969 143.496094c8.226562 2.203125 13.238281 10.511718 11.351562 18.8125l-21.40625 94.214844h127.855469c17.546875 0 30.792969-15.808594 27.867188-33.109376-15.746094-93.09375-96.761719-163.996093-194.335938-163.996093s-178.589844 70.902343-194.335938 163.996093c-2.925781 17.300782 10.320313 33.105469 27.867188 33.105469h164.238281l31.664063-102.402343c2.515625-8.132813 11.011718-12.824219 19.234375-10.621094zm0 0" fill="#d4ffff"/><path d="m298.613281 401.851562h-85.226562c-16.292969 0-29.503907 13.210938-29.503907 29.503907s13.210938 29.5 29.503907 29.5h85.226562c16.292969 0 29.503907-13.207031 29.503907-29.5s-13.210938-29.503907-29.503907-29.503907zm0 0" fill="#6ab6ff"/><path d="m283.8125 304.0625c3.15625-13.898438 29.039062-127.804688 32.207031-141.753906 1.886719-8.300782-3.125-16.609375-11.351562-18.8125-8.222657-2.203125-16.71875 2.488281-19.234375 10.621094-4.257813 13.769531-37.089844 119.945312-43.265625 139.917968 14.316406-5.8125 31.113281-2.132812 41.644531 10.027344zm0 0" fill="#78ffa9"/><path d="m219.273438 326.019531c-.039063.699219-.0625 1.402344-.0625 2.109375 0 20.320313 16.46875 36.792969 36.789062 36.792969 31.667969 0 48.222656-37.296875 27.8125-60.859375-21.601562-24.941406-62.683594-10.890625-64.539062 21.957031zm0 0" fill="#ffe671"/><path d="m246 113.601562c0 5.523438 4.476562 10 10 10s10-4.476562 10-10v-20.980468c0-5.519532-4.476562-10-10-10s-10 4.480468-10 10zm0 0"/><path d="m161.660156 124.476562c-4.007812-3.796874-10.335937-3.625-14.136718.382813-3.796876 4.011719-3.625 10.339844.382812 14.136719l15.230469 14.429687c4.007812 3.796875 10.335937 3.628907 14.136719-.382812 3.800781-4.007813 3.628906-10.335938-.382813-14.136719zm0 0"/><path d="m348.863281 153.425781 15.230469-14.429687c4.007812-3.796875 4.179688-10.128906.382812-14.136719-3.800781-4.007813-10.128906-4.179687-14.136718-.382813l-15.230469 14.429688c-4.011719 3.796875-4.183594 10.128906-.382813 14.136719 3.804688 4.015625 10.132813 4.175781 14.136719.382812zm0 0"/><path d="m122.257812 207.625h-21.851562c-5.523438 0-10 4.476562-10 10 0 5.519531 4.476562 10 10 10h21.851562c5.523438 0 10-4.480469 10-10 0-5.523438-4.476562-10-10-10zm0 0"/><path d="m389.742188 227.625h21.855468c5.519532 0 10-4.480469 10-10 0-5.523438-4.480468-10-10-10h-21.855468c-5.523438 0-10 4.476562-10 10 0 5.519531 4.476562 10 10 10zm0 0"/><path d="m298.613281 391.855469h-85.226562c-21.78125 0-39.503907 17.71875-39.503907 39.5s17.722657 39.503906 39.503907 39.503906h85.226562c21.78125 0 39.503907-17.722656 39.503907-39.503906s-17.722657-39.5-39.503907-39.5zm0 59.003906h-85.226562c-10.753907 0-19.503907-8.75-19.503907-19.503906 0-10.753907 8.75-19.5 19.503907-19.5h85.226562c10.753907 0 19.503907 8.746093 19.503907 19.5 0 10.753906-8.75 19.503906-19.503907 19.503906zm0 0"/><path d="m220.6875 56.917969c-4.480469-4.480469-11.988281-3.640625-15.378906 1.53125-4.453125 6.691406.421875 15.550781 8.320312 15.550781 8.78125 0 13.417969-10.722656 7.058594-17.082031zm0 0"/><path d="m436.226562 75.039062c-100.953124-100.246093-262.421874-98.8125-361.660156.878907-48.601562 48.820312-75.117187 113.796875-74.5585935 182.769531.3554685 42.640625 35.3320315 77.332031 77.9726565 77.332031h131.90625c3.761719 22.054688 23.003906 38.902344 46.113281 38.902344s42.347656-16.847656 46.109375-38.902344h131.910156c42.667969 0 77.644531-34.769531 77.972657-77.507812.546874-68.230469-25.78125-133.839844-75.765626-183.472657zm-141.238281 82.03125c2.101563-6.796874 12.257813-4.5 11.382813 2.445313-.070313.5625 1.175781-5.078125-28.84375 127.074219-6.453125-3.351563-13.683594-5.164063-20.96875-5.25 2.59375-8.375 31.773437-102.742188 38.429687-124.269532zm-38.988281 197.851563c-15.328125 0-27.648438-12.941406-26.742188-28.335937.933594-16.480469 16.507813-28.21875 32.601563-24.59375 10.378906 2.332031 18.285156 10.585937 20.375 20.703124 3.425781 16.671876-9.328125 32.226563-26.234375 32.226563zm178.023438-38.902344h-132.820313c-1.308594-4.902343-3.53125-9.851562-6.601563-14.320312l7.996094-35.175781h119.871094c11.277344 0 21.921875-4.941407 29.199219-13.554688 7.3125-8.648438 10.417969-20.03125 8.527343-31.222656-8.0625-47.671875-32.871093-91.300782-69.851562-122.847656-37.402344-31.910157-85.113281-49.480469-134.34375-49.480469-5.523438 0-10 4.476562-10 10 0 5.523437 4.476562 10 10 10 44.476562 0 87.578125 15.871093 121.363281 44.695312 33.417969 28.507813 55.832031 67.917969 63.113281 110.96875.90625 5.371094-.582031 10.832031-4.085937 14.976563-3.46875 4.109375-8.542969 6.464844-13.921875 6.464844h-115.328125c19.199219-86.203126 19.691406-82.816407 19.226563-89.570313-1.488282-21.546875-27.394532-31.71875-43.21875-17.28125-3.335938 3.042969-5.871094 6.964844-7.269532 11.492187l-29.488281 95.355469h-156.859375c-11.339844 0-19.902344-10.230469-18.007812-21.4375 10.367187-61.300781 50.472656-113.28125 107.277343-139.046875 5.027344-2.285156 7.257813-8.210937 4.976563-13.238281s-8.207032-7.257813-13.238282-4.976563c-62.867187 28.515626-107.253906 86.058594-118.734374 153.925782-3.960938 23.441406 14.035156 44.773437 37.726562 44.773437h150.679688l-6.296876 20.363281c-11.449218 6.144532-19.816406 16.777344-23.117187 29.136719h-132.816406c-31.703125 0-57.707031-25.792969-57.972657-57.5-.542968-61.855469 22.800782-122.351562 68.734376-168.492187 91.433593-91.855469 240.261718-93.277344 333.394531-.796875 44.914062 44.601562 69.726562 103.824219 69.863281 166.753906.042969 36.011719-27.621094 60.035156-57.976562 60.035156zm0 0"/></svg>